<?xml version="1.0" ?><svg enable-background="new -194.612 43.153 456.623 477.562" id="Layer_1" version="1.1" viewBox="-194.612 43.153 456.623 477.562" xml:space="preserve" xmlns="http://www.w3.org/2000/svg" xmlns:xlink="http://www.w3.org/1999/xlink"><g><g id="_x33_59-viber"><g><g><g><path d="M87.417,240c0,1,0.481,1,0.481,2c0,2-1.898,1.543-2.898,2.543c-1-1-1.584-0.576-1.584-1.576       c-0.506-5.563-3.058-11.041-5.985-16.216c-2.862-5.057-6.315-10-10.27-13.953c-6-4-13.156-3.826-20.156-5.826       c-4,0-4.969-8.627-0.969-8.627c5.476-0.996,10.557-0.654,15.536,0.582c5.024,1.247,9.942,3.002,14.463,6.016       c6.051,3.53,9.706,9.246,11.561,15.562c1.824,6.209,1.943,13.07-0.535,19.515C86.997,240.218,87.417,240,87.417,240z"/></g><g><path d="M111.367,248.979c-0.335-5.696-1.262-11.388-2.831-16.821c-1.565-5.421-3.978-10.645-6.547-15.73       c-2.543-5.031-5.625-9.843-8.932-14.473c-5-6-9.09-10.902-15.09-14.902c-7-4-13.021-7.865-21.021-9.865       c-6-2-13.046,0.046-19.046-1.954c-1-1-2.962-2.233-2.962-4.233c0-1-0.012-1.037-0.012-2.037c1-1,2.073-2.625,4.073-2.625       c5.425,0,10.956,0.066,16.454,0.912c5.414,0.833,10.799,2.088,15.984,4.041c5.082,1.913,9.824,4.657,14.404,7.929       c4.734,3.408,8.938,7.06,12.515,11.168c3.756,4.316,7.415,8.672,10.032,13.562c2.664,4.978,4.138,10.493,5.771,15.852       c1.639,5.385,3.161,10.822,3.909,16.373c0.755,5.611,0.85,11.271,0.85,16.826c0,2-3.098,2.447-6.098,1.447       c-2-1-2.502-3.231-1.502-5.231C111.422,249.063,111.367,248.979,111.367,248.979z"/></g><g><path d="M147,263.223c1,0,2.807,0.729,2.807,2.729c-1,2-5.981,1.093-6.981-0.907c-0.982-5.731-1.549-11.55-2.884-17.147       c-1.351-5.662-3.272-11.155-5.047-16.626c-1.795-5.534-3.855-10.944-6.149-16.226c-2.311-5.321-5.265-10.284-8.148-15.292       c-2.879-5-5.465-10.213-8.982-14.844c-3.463-4.56-7.152-9.087-11.299-13.234c-4.688-4.442-10.194-7.702-15.447-11.047       c-5.382-3.429-10.98-6.224-16.859-8.501c-5.879-2.277-11.877-4.137-18.154-5.264c-6.145-1.103-12.42-1.396-18.854-1.396       c-3,0-5.631-3.374-4.631-6.374c0-1,0.663-1.764,1.663-1.764c6.01-0.668,11.989-1.17,17.943-0.849       c6.014,0.325,11.976,1.134,17.818,2.44c5.854,1.309,11.692,2.871,17.259,5.135c5.535,2.251,10.732,5.324,15.869,8.492       c5.063,3.123,10.016,6.528,14.582,10.515c4.461,3.895,8.26,8.549,12.144,13.242c1,1,0.128,1.922,1.128,2.922       c5,5,8.451,10.664,11.451,16.664c2.489,5.227,4.725,10.553,6.3,15.998c1.592,5.502,2.566,11.194,3.383,16.854       c0.813,5.64,1.212,11.375,1.413,17.108c0.199,5.694,0.414,11.447,0.165,17.171C147.481,263.132,147,263.223,147,263.223z"/></g><g><path d="M261.913,237.075c-0.032-1.667-0.064-3.334-0.081-5c-0.04-3.861-0.326-7.618-0.604-11.25       c-0.146-1.925-0.294-3.852-0.401-5.786c-0.316-5.729-0.77-11.306-1.385-17.047c-0.01-0.091-0.021-0.182-0.033-0.272       c-0.286-2.12-0.487-4.313-0.701-6.634c-0.373-4.07-0.76-8.278-1.655-12.631c-1.19-5.785-2.796-12.003-4.907-19.013       c-2.258-7.485-4.382-13.442-6.684-18.749c-2.368-5.458-5.385-10.199-8.302-14.785c-0.583-0.916-1.165-1.831-1.738-2.747       c-0.453-0.725-0.903-1.452-1.354-2.179c-3.033-4.902-6.17-9.972-10.456-14.63c-4.801-5.216-10.318-9.32-15.588-13.065       l-1.438-1.238c-4.207-3.627-8.559-7.377-13.494-10.656c-4.748-3.155-9.659-5.687-14.41-8.135       c-0.842-0.434-1.683-0.868-2.521-1.303c-1.453-0.756-2.898-1.538-4.348-2.321c-4.063-2.196-8.267-4.467-12.842-6.351       c-1.208-0.498-2.501-0.753-3.808-0.753c-0.525,0-1.021,0.029-1.472,0.07c-4.904-2.169-10.011-4.045-15.526-5.706       c-5.987-1.803-12.245-3.293-18.6-4.43c-4.458-0.796-8.874-1.218-13.146-1.625c-1.715-0.164-3.437-0.328-5.162-0.518       c-2.285-0.345-4.575-0.781-6.997-1.242c-3.27-0.623-6.65-1.267-10.144-1.698c-3.613-0.447-7.111-0.625-10.495-0.799       c-2.468-0.126-4.799-0.245-7.068-0.46c-4.676-0.443-9.323-0.722-13.817-0.992c-1.253-0.075-2.506-0.15-3.761-0.229       c-2.258-0.141-4.559-0.396-6.994-0.667c-3.405-0.378-6.927-0.769-10.608-0.87c-6.559-0.182-12.345-0.247-17.692-0.193       l-3.498,0.027c-4.62,0.031-9.398,0.064-14.211,0.297c-3.711,0.18-7.22,0.706-10.614,1.214c-2.44,0.366-4.745,0.711-6.986,0.909       c-2.177,0.191-4.434,0.279-6.824,0.372c-3.49,0.136-7.098,0.276-10.945,0.768c-3.839,0.523-7.441,1.309-10.924,2.069       c-1.862,0.406-3.622,0.79-5.362,1.123c-1.257,0.24-2.512,0.472-3.764,0.702c-4.092,0.754-8.324,1.533-12.559,2.613       c-6.5,1.657-11.456,3.066-16.073,4.57c-4.719,1.538-10.281,3.406-15.754,5.596c-0.044,0.018-0.088,0.036-0.132,0.054       c-5.481,2.284-10.495,5.064-15.342,7.752c-0.914,0.507-1.827,1.013-2.739,1.514c-0.8,0.439-1.603,0.875-2.405,1.31       c-5.127,2.783-10.429,5.661-15.385,9.501c-5.196,4.025-10.192,8.902-15.275,14.908c-5.304,6.267-9.161,11.958-12.139,17.914       c-0.046,0.093-0.092,0.187-0.135,0.282c-2.285,4.95-4.112,9.794-5.88,14.478c-0.694,1.841-1.386,3.675-2.102,5.501       c-0.637,1.625-1.299,3.245-1.965,4.874c-2.003,4.897-4.074,9.961-5.693,15.627c-0.039,0.137-0.075,0.275-0.108,0.414       c-0.984,4.098-1.567,8.074-2.132,11.92c-0.362,2.466-0.704,4.796-1.134,7.049c-0.408,2.14-0.849,4.267-1.288,6.388       c-0.83,4.008-1.688,8.153-2.336,12.382c-1.059,6.904-1.935,13.053-2.679,18.796c-0.45,3.471-0.741,6.908-1.022,10.232       c-0.248,2.933-0.482,5.704-0.816,8.485c-0.094,0.784-0.095,1.577-0.003,2.361c0.337,2.86,0.287,5.964,0.233,9.25       c-0.036,2.221-0.073,4.518,0.005,6.896c0.086,2.621,0.247,5.207,0.402,7.708c0.196,3.159,0.382,6.144,0.42,9.097       c0.024,1.852,0.019,3.707,0.013,5.562c-0.01,3.86-0.021,7.851,0.218,11.922c0.008,0.137,0.019,0.273,0.033,0.409       c0.28,2.8,0.622,5.483,0.954,8.078c0.285,2.235,0.555,4.347,0.776,6.456c0.264,2.502,0.63,4.932,0.984,7.28       c0.368,2.443,0.716,4.752,0.952,7.104c0.029,0.294,0.072,0.586,0.127,0.877c0.573,3.008,0.989,6.046,1.429,9.263       c0.512,3.746,1.042,7.62,1.85,11.517c1.342,6.478,3.293,12.585,5.18,18.492l0.816,2.563c2.565,8.093,5.269,14.729,8.508,20.881       c0.338,0.643,0.744,1.245,1.212,1.798c0.069,0.177,0.151,0.395,0.218,0.573c0.637,1.7,1.705,4.546,4.236,7.077       c0.162,0.162,0.323,0.315,0.482,0.46c0.448,1.565,1.205,3.969,3.245,6.164c0.349,0.55,0.991,1.834,1.457,2.767       c0.269,0.537,0.584,1.049,0.944,1.528c4.692,6.256,9.538,11.862,14.814,17.139c5.042,5.042,10.661,9.869,17.177,14.756       c0.48,0.36,0.991,0.676,1.528,0.944c0.38,0.19,0.725,0.355,1.046,0.51c0.267,0.128,0.5,0.228,0.673,0.324       c0.006,0.005,0.16,0.12,0.541,0.501c1.344,1.345,3.47,2.823,6.56,3.228c4.535,2.831,8.959,4.926,12.767,6.627       c2.854,1.275,5.679,2.526,8.51,3.779l0.13,0.058c-0.817,3.982-1.264,8.072-1.353,12.334c-0.087,4.111-0.014,8.202,0.056,12.157       c0.046,2.564,0.093,5.217,0.093,7.775c0,0.658,0.065,1.315,0.194,1.961c0.531,2.654,1.139,5.267,1.728,7.793       c0.579,2.484,1.125,4.831,1.595,7.177c0.081,0.407,0.188,0.808,0.319,1.201c0.724,2.171,1.563,3.852,2.237,5.203       c0.512,1.025,0.882,1.767,1.158,2.596c0.328,0.982,0.804,1.904,1.411,2.735c0.025,0.061,0.05,0.122,0.076,0.183       c0.587,1.392,1.474,3.496,3.357,5.379c0.181,0.181,0.369,0.354,0.563,0.521c5.377,4.609,12.221,6.941,19.109,6.94       c6.1,0,12.234-1.829,17.411-5.526c0.177-0.127,0.351-0.26,0.52-0.398c6.98-5.711,12.201-10.909,16.428-16.359       c4.782-6.164,7.973-12.966,10.265-18.646c3-2.55,6.097-5.188,8.959-8.175c2.084-2.174,3.75-3.86,5.438-5.099       c4.891,0.366,9.724,0.709,14.569,1.052l1.467,0.104c4.211,0.299,8.401,0.456,12.453,0.608c2.343,0.089,4.684,0.177,7.025,0.292       c6.828,0.334,13.472,0.448,19.632,0.521c1.559,0.02,3.119,0.048,4.682,0.076c4.89,0.09,9.944,0.182,15.104-0.017       c0.127-0.005,0.255-0.012,0.383-0.021c3.665-0.282,7.374-0.44,10.961-0.594c2.582-0.11,5.253-0.225,7.913-0.384       c5.107-0.308,10.043-1.133,14.815-1.931c1.626-0.271,3.268-0.547,4.932-0.803c6.648-0.951,13.808-2.037,21.116-3.527       c3.934-0.802,7.883-1.7,11.702-2.569c2.888-0.657,5.802-1.32,8.772-1.957c0.285-0.062,0.566-0.135,0.845-0.221       c1.653-0.509,3.296-0.992,4.928-1.473c4.944-1.457,10.058-2.964,15.145-5.053c6.728-2.763,13.113-6.184,19.522-10.458       c0.548-0.365,1.058-0.783,1.523-1.248c0.692-0.692,1.479-1.205,3.19-2.299c0.698-0.446,1.45-0.927,2.271-1.475       c0.203-0.135,0.4-0.277,0.593-0.427l0.807-0.627c4.239-3.294,8.623-6.699,12.625-10.663c4.518-4.472,8.382-9.23,11.566-13.297       c3.441-4.394,7.056-9.177,10.175-14.385c3.513-5.868,6.135-10.794,8.252-15.5c0.02-0.042,0.038-0.085,0.057-0.127       c2.836-6.545,5.23-12.982,7.118-19.133c1.672-5.452,2.793-10.89,3.877-16.148c0.24-1.167,0.481-2.334,0.728-3.499l0.508-2.393       c1.182-5.551,2.402-11.29,3.255-17.162c0.65-4.477,1.067-8.938,1.472-13.253c0.197-2.098,0.394-4.196,0.616-6.292       c0.397-3.731,0.665-7.452,0.924-11.05c0.206-2.858,0.4-5.558,0.654-8.278c0.007-0.073,0.014-0.146,0.019-0.219       c0.284-3.974,0.479-7.932,0.667-11.759c0.083-1.671,0.165-3.34,0.254-5.007c0.12-2.229,0.359-4.506,0.612-6.917       c0.335-3.191,0.682-6.49,0.771-9.933C262.066,244.994,261.988,240.969,261.913,237.075z M241.965,248.545       c-0.068,2.66-0.36,5.433-0.668,8.368c-0.269,2.554-0.546,5.196-0.692,7.935c-0.091,1.696-0.175,3.393-0.259,5.093       c-0.182,3.684-0.369,7.491-0.633,11.21c-0.27,2.897-0.478,5.793-0.68,8.595c-0.258,3.588-0.502,6.977-0.862,10.366       c-0.232,2.18-0.438,4.363-0.642,6.546c-0.398,4.253-0.775,8.27-1.353,12.245c-0.758,5.225-1.858,10.396-3.023,15.872       l-0.515,2.42c-0.253,1.197-0.5,2.396-0.747,3.598c-1.036,5.024-2.015,9.771-3.409,14.319       c-1.665,5.424-3.792,11.138-6.321,16.982c-1.786,3.963-4.059,8.214-7.145,13.37c-2.411,4.026-5.246,7.839-8.76,12.325       c-2.8,3.575-6.165,7.727-9.894,11.418c-3.15,3.119-6.878,6.015-10.824,9.081l-0.516,0.401c-0.59,0.389-1.137,0.737-1.65,1.065       c-1.863,1.19-3.781,2.416-5.757,4.234c-5.054,3.312-10.07,5.973-15.312,8.126c-4.132,1.696-8.536,2.994-13.199,4.368       c-1.569,0.462-3.148,0.928-4.736,1.413c-2.907,0.626-5.763,1.276-8.594,1.92c-3.882,0.884-7.548,1.718-11.259,2.474       c-6.821,1.391-13.646,2.425-20.006,3.334c-0.034,0.005-0.068,0.01-0.103,0.016c-1.77,0.271-3.515,0.563-5.243,0.853       c-4.456,0.744-8.665,1.448-12.717,1.691c-2.487,0.149-4.955,0.255-7.567,0.367c-3.692,0.157-7.509,0.32-11.444,0.619       c-4.526,0.167-9.025,0.085-13.783-0.002c-1.604-0.029-3.206-0.059-4.807-0.078c-5.971-0.071-12.393-0.182-18.893-0.5       c-2.416-0.118-4.833-0.21-7.254-0.301c-4.068-0.153-7.91-0.298-11.791-0.572l-1.468-0.104       c-5.854-0.414-11.691-0.828-17.633-1.285c-1.806-0.138-3.619,0.217-5.241,1.027c-5.767,2.884-9.77,7.061-12.985,10.416       c-2.193,2.288-4.816,4.518-7.594,6.877c-0.61,0.519-1.219,1.036-1.823,1.554c-1.26,1.079-2.231,2.455-2.826,4.004       c-1.85,4.809-4.469,10.97-8.345,15.966c-3.225,4.158-7.359,8.262-12.991,12.895c-2.729,1.822-7.019,2.435-10.436,0.4       c-0.312-0.716-0.707-1.552-1.249-2.419c-0.568-1.432-1.159-2.616-1.659-3.619c-0.413-0.826-0.733-1.469-0.986-2.12       c-0.495-2.405-1.046-4.771-1.581-7.067c-0.501-2.152-0.979-4.202-1.402-6.236c-0.01-2.397-0.053-4.789-0.094-7.112       c-0.07-3.937-0.137-7.654-0.058-11.379c0.118-5.657,1.114-10.848,3.045-15.868c1.183-3.075,0.775-6.535-1.09-9.251       c-1.806-2.629-4.752-4.234-7.928-4.334c-0.288-0.031-0.628-0.087-0.969-0.138c-0.164-0.024-0.329-0.05-0.495-0.073       l-3.239-1.437c-2.81-1.243-5.613-2.484-8.448-3.752c-3.615-1.614-7.473-3.449-11.271-5.93c-1.173-0.911-2.728-1.752-4.72-2.142       c-1.411-1.063-2.663-1.711-4.032-2.368c-5.493-4.162-10.048-8.097-14.283-12.332c-4.402-4.402-8.473-9.084-12.424-14.291       c-0.915-1.815-1.88-3.643-3.118-5.258c-0.2-0.69-0.466-1.562-0.865-2.536c-0.554-1.874-1.733-4.01-4.149-5.829       c-0.013-0.035-0.026-0.069-0.039-0.102c-0.518-1.381-1.318-3.516-2.956-5.625c-2.459-4.823-4.582-10.146-6.643-16.646       l-0.831-2.607c-1.809-5.663-3.518-11.014-4.647-16.462c-0.668-3.228-1.13-6.6-1.618-10.171       c-0.437-3.192-0.888-6.49-1.516-9.861c-0.282-2.684-0.662-5.208-1.031-7.653c-0.336-2.229-0.654-4.335-0.87-6.392       c-0.246-2.329-0.542-4.65-0.828-6.895c-0.306-2.396-0.622-4.869-0.871-7.33c-0.191-3.393-0.182-6.843-0.172-10.492       c0.005-1.96,0.01-3.919-0.015-5.877c-0.045-3.444-0.254-6.816-0.457-10.077c-0.153-2.466-0.298-4.795-0.375-7.124       c-0.062-1.888-0.03-3.844,0.003-5.915c0.056-3.426,0.113-6.958-0.238-10.69c0.307-2.737,0.535-5.43,0.756-8.044       c0.275-3.25,0.535-6.319,0.927-9.351c0.724-5.588,1.579-11.584,2.613-18.333c0.57-3.715,1.338-7.428,2.152-11.359       c0.46-2.223,0.921-4.45,1.349-6.692c0.511-2.675,0.9-5.329,1.277-7.896c0.512-3.488,0.996-6.788,1.742-9.948       c1.311-4.533,3.063-8.815,4.915-13.346c0.704-1.721,1.403-3.432,2.075-5.148c0.746-1.903,1.468-3.816,2.192-5.735       c1.7-4.505,3.307-8.762,5.262-13.015c2.238-4.443,5.243-8.833,9.447-13.799c4.17-4.928,8.18-8.86,12.259-12.02       c3.673-2.846,8.046-5.22,12.677-7.733c0.828-0.45,1.657-0.899,2.484-1.354c0.939-0.515,1.877-1.036,2.818-1.557       c4.547-2.521,8.843-4.904,13.271-6.754c4.903-1.958,9.845-3.619,14.454-5.122c4.186-1.363,8.756-2.66,14.82-4.207       c3.58-0.913,7.301-1.599,11.24-2.324c1.296-0.239,2.595-0.478,3.895-0.727c1.996-0.381,3.966-0.811,5.871-1.227       c3.245-0.708,6.309-1.376,9.278-1.782c2.887-0.369,5.907-0.486,9.104-0.61c2.524-0.098,5.135-0.199,7.799-0.434       c2.851-0.25,5.57-0.658,8.199-1.052c3.039-0.456,5.909-0.886,8.615-1.017c4.399-0.213,8.966-0.244,13.382-0.274l3.553-0.028       c5.098-0.048,10.64,0.012,16.947,0.187c2.854,0.079,5.818,0.408,8.957,0.756c2.563,0.284,5.214,0.579,7.948,0.75       c1.271,0.08,2.542,0.156,3.813,0.232c4.324,0.26,8.796,0.528,13.128,0.939c2.702,0.256,5.362,0.392,7.936,0.523       c3.169,0.162,6.162,0.315,9.063,0.674c2.847,0.352,5.766,0.907,8.856,1.496c2.57,0.489,5.229,0.996,7.972,1.404       c0.124,0.019,0.247,0.035,0.371,0.048c1.891,0.21,3.777,0.39,5.656,0.57c4.05,0.386,7.875,0.751,11.526,1.404       c5.598,1.001,11.1,2.311,16.352,3.893c5.556,1.673,10.594,3.586,15.402,5.85c1.332,0.627,2.786,0.952,4.259,0.952       c0.563,0,1.09-0.033,1.565-0.079c2.845,1.309,5.697,2.85,8.681,4.462c1.54,0.832,3.077,1.663,4.623,2.467       c0.861,0.449,1.726,0.894,2.591,1.339c4.462,2.3,8.678,4.473,12.505,7.017c3.894,2.586,7.59,5.772,11.504,9.146l1.816,1.563       l0.001,0c0.245,0.211,0.503,0.412,0.773,0.602c4.499,3.193,9.189,6.637,12.776,10.534c2.997,3.257,5.508,7.314,8.166,11.61       c0.467,0.755,0.935,1.51,1.405,2.263c0.601,0.959,1.209,1.916,1.818,2.874c2.617,4.113,5.088,7.998,6.829,12.01       c1.985,4.577,3.854,9.84,5.882,16.561c1.938,6.428,3.398,12.078,4.467,17.272c0.672,3.26,0.991,6.741,1.329,10.427       c0.219,2.382,0.444,4.845,0.777,7.339c0.572,5.351,0.993,10.551,1.289,15.892c0.114,2.072,0.271,4.138,0.429,6.2       c0.264,3.462,0.513,6.732,0.546,9.937c0.018,1.727,0.051,3.453,0.084,5.18C241.991,241.298,242.061,244.923,241.965,248.545z"/><path d="M154.203,344.086c0.118-3.44,0.339-9.844-5.052-15.235c-0.123-0.123-0.249-0.267-0.386-0.417       c-1.158-1.27-3.069-3.364-6.093-4.956c-2.717-1.592-5.358-3.511-8.15-5.541c-1.405-1.021-2.805-2.037-4.219-3.019       c-2-1.39-4.035-2.857-6.003-4.276c-2.321-1.674-4.721-3.405-7.16-5.079c-3.704-2.543-7.48-4.54-11.133-6.472       c-1.236-0.654-2.475-1.309-3.704-1.983c-0.775-0.426-1.549-0.859-2.325-1.294c-4.008-2.245-8.55-4.789-13.766-6.525       c-0.494-0.165-1.001-0.291-1.516-0.377c-8.479-1.411-19.986,0.117-26.816,8.655c-1.692,2.115-2.424,4.781-2.127,7.384       c-0.364,0.39-0.715,0.71-1.039,0.927c-0.941,0.628-1.771,1.41-2.449,2.315c-0.078,0.104-0.159,0.215-0.241,0.333       c-1.101,0.239-2.523,0.252-4.472-0.193c-2.746-0.628-5.812-1.756-8.775-2.846c-1.369-0.504-2.778-1.022-4.174-1.498       c-5.126-2.412-10.031-5.479-14.98-9.364c-4.159-3.265-7.84-7.324-12.004-12.375c-1.333-2.396-2.846-4.306-4.201-6.019       c-1.094-1.382-2.04-2.576-2.577-3.651l-1.049-2.095c-2.738-5.465-5.325-10.628-7.697-16.048       c-1.853-4.233-3.346-8.897-4.724-13.58c0.105-0.336,0.192-0.678,0.262-1.025l0.232-1.18c0.778-3.986,0.945-4.111,1.392-4.446       c0.676-0.507,1.286-1.098,1.813-1.759c0.723-0.905,1.282-1.882,1.675-2.906c1.36-0.898,2.833-1.771,4.354-2.67       c0.91-0.538,1.819-1.077,2.722-1.629c4.622-2.827,10.335-6.99,13.521-14.156c0.712-1.603,0.99-3.364,0.807-5.108       c-0.948-9.011-4.45-16.314-7.001-21.024c-3.19-5.889-6.868-11.512-10.931-16.715c-1.621-2.076-3.317-4.03-4.957-5.919       c-2.297-2.646-4.467-5.146-6.281-7.784c-0.175-0.254-0.361-0.5-0.558-0.736c-5.922-7.106-14.155-11.706-23.867-13.349       c-8.966-3.312-16.747-2.823-23.171,1.451c-0.838,0.504-1.683,1.146-2.501,1.964c-1.168,1.169-1.989,2.558-2.459,4.037       c-2.65,1.748-5.419,3.787-8.429,6.197c-5.684,4.551-10.664,9.482-14.802,14.656c-0.181,0.226-0.351,0.459-0.511,0.699       c-4.858,7.287-5.735,16.177-2.779,24.033c-1.498,3.781-1.423,8.142,0.298,11.712c0.867,1.861,1.686,3.735,2.552,5.717       c1.326,3.035,2.698,6.172,4.265,9.285c1.282,2.544,2.66,4.913,3.992,7.204c1.392,2.393,2.706,4.652,3.781,6.887       c1.543,3.208,2.864,6.616,4.261,10.224c0.545,1.406,1.089,2.811,1.648,4.209c0.407,1.018,0.979,1.961,1.692,2.794       c3.782,4.413,7.255,8.896,10.325,13.325c2.292,3.31,4.627,6.591,6.885,9.764c1.166,1.639,2.33,3.274,3.485,4.91       c0.641,0.907,1.274,1.818,1.906,2.728c2.636,3.793,5.354,7.702,8.645,11.437c2.648,5.284,5.523,10.233,8.557,14.729       c3.61,5.35,6.928,10.151,10.97,14.747c3.455,3.929,7.205,7.298,10.833,10.557c0.767,0.689,1.534,1.378,2.295,2.07       c3.668,3.336,7.526,6.19,11.256,8.951c0.966,0.715,1.934,1.43,2.898,2.155c4.728,3.552,9.647,6.965,14.624,10.144l2.039,1.307       c4.16,2.667,8.46,5.425,12.996,7.953l1.981,1.106c4.338,2.425,8.823,4.933,13.442,7.236c1.143,0.57,2.284,1.145,3.424,1.717       c3.962,1.991,8.058,4.049,12.203,5.949c3.275,1.504,6.549,2.854,9.715,4.16c2.028,0.836,4.048,1.668,6.041,2.532       c4.027,1.869,7.671,0.985,9.789,0.206c2.076,0.826,5.018,1.931,8.468,1.93c1.427,0,2.939-0.188,4.515-0.663       c6.205-1.586,11.884-4.091,16.884-7.45c5.773-3.881,10.278-7.936,13.772-12.396c2.22-2.834,4.257-6.045,6.162-9.721       c0.806-0.207,1.573-0.513,2.287-0.902c0.039,0,0.079,0,0.119,0c3.318,0,6.436-1.602,8.296-4.35       c1.86-2.747,2.251-6.195,1.019-9.275C154.137,346.018,154.177,344.855,154.203,344.086z M129.138,343.865       c-1.593,1.152-2.849,2.775-3.546,4.714c-0.332,0.921-0.547,1.829-0.644,2.722c-1.389,2.731-2.828,5.039-4.354,6.988       c-2.179,2.781-5.183,5.44-9.184,8.129c-3.007,2.021-6.479,3.561-10.327,4.581c-0.393-0.142-0.891-0.341-1.294-0.502       c-0.775-0.31-1.654-0.661-2.626-0.985c-1.591-0.53-3.086-0.729-4.445-0.729c-1.768,0-3.307,0.338-4.528,0.725       c-1.226-0.515-2.459-1.022-3.694-1.532c-3.126-1.289-6.077-2.507-9.002-3.849c-3.824-1.754-7.583-3.643-11.562-5.642       c-1.158-0.582-2.317-1.164-3.478-1.743c-4.196-2.094-8.283-4.378-12.609-6.797l-2.003-1.119       c-3.998-2.228-7.854-4.701-11.938-7.319l-2.068-1.324c-4.552-2.908-9.053-6.03-13.376-9.278c-1.003-0.754-2.01-1.5-3.016-2.244       c-3.485-2.579-6.776-5.015-9.698-7.672c-0.791-0.719-1.587-1.435-2.384-2.15c-3.344-3.004-6.502-5.842-9.18-8.887       c-3.261-3.708-6.191-7.957-9.409-12.726c-2.761-4.092-5.386-8.671-7.802-13.609c-0.426-0.871-0.977-1.676-1.634-2.388       c-2.814-3.048-5.294-6.618-7.921-10.396c-0.661-0.952-1.323-1.904-1.994-2.853c-1.168-1.654-2.345-3.308-3.524-4.965       c-2.222-3.123-4.52-6.353-6.742-9.56c-3.156-4.555-6.677-9.143-10.48-13.658c-0.327-0.834-0.651-1.669-0.974-2.505       c-1.477-3.812-3.003-7.752-4.89-11.672c-1.415-2.939-2.99-5.648-4.514-8.268c-1.239-2.13-2.409-4.142-3.42-6.148       c-1.321-2.624-2.525-5.378-3.8-8.296c-0.288-0.66-0.58-1.327-0.875-1.999c0.395-0.532,0.741-1.108,1.028-1.723       c1.646-3.514,1.11-7.663-1.374-10.644c-1.93-2.316-2.196-5.233-0.726-7.692c3.158-3.882,6.979-7.628,11.363-11.139       c5.309-4.25,9.483-6.966,13.534-8.808c1.083-0.493,2.043-1.16,2.856-1.956c0.429,0.144,0.883,0.311,1.362,0.502       c0.739,0.296,1.511,0.502,2.3,0.615c5.171,0.739,9.292,2.837,12.257,6.24c2.366,3.38,4.9,6.299,7.354,9.126       c1.541,1.774,2.996,3.451,4.297,5.117c3.381,4.33,6.445,9.018,9.108,13.933c2.107,3.889,3.448,7.222,4.174,10.432       c-0.944,1.003-2.326,2.029-4.349,3.267c-0.819,0.501-1.646,0.99-2.473,1.479c-3.192,1.888-6.81,4.029-10.18,6.918       c-0.64,0.548-1.207,1.174-1.689,1.865c-0.73,1.045-1.257,2.179-1.577,3.359c-2.6,3.163-3.786,6.567-4.542,9.733       c-1.347,1.567-2.525,3.926-2.525,7.378c0,0.929,0.129,1.854,0.385,2.747c1.954,6.84,3.975,13.914,6.986,20.796       c2.581,5.896,5.406,11.536,8.139,16.989l1.041,2.08c1.462,2.924,3.227,5.154,4.784,7.121c1.094,1.382,2.04,2.576,2.577,3.651       c0.332,0.663,0.735,1.287,1.205,1.86c4.551,5.563,9.61,11.376,15.754,16.199c6.34,4.978,12.691,8.906,19.419,12.012       c0.335,0.154,0.678,0.29,1.027,0.406c1.286,0.429,2.679,0.941,4.154,1.484c3.389,1.246,7.229,2.659,11.223,3.571       c8.309,1.9,15.809,0.673,22.293-3.649c0.688-0.458,1.316-1.001,1.871-1.614c0.733-0.812,1.331-1.699,1.785-2.64       c2.957-2.789,5.129-6.048,6.83-8.6c0.463-0.693,0.834-1.438,1.108-2.217c0.09-0.188,0.173-0.379,0.249-0.571       c1.065-0.134,2.249-0.14,3.441-0.002c3.147,1.151,6.256,2.893,9.531,4.728c0.826,0.463,1.649,0.924,2.473,1.375       c1.319,0.726,2.649,1.43,3.979,2.133c3.298,1.743,6.412,3.391,9.166,5.281c2.246,1.542,4.448,3.13,6.779,4.811       c2.038,1.471,4.146,2.991,6.294,4.482c1.298,0.901,2.581,1.835,3.868,2.771c3.147,2.288,6.403,4.653,10.089,6.787       c0.121,0.07,0.243,0.138,0.367,0.203c0.076,0.067,0.179,0.171,0.29,0.288C131.859,341.834,130.355,342.688,129.138,343.865z"/></g></g></g></g><g id="Layer_1_1_"/></g></svg>